<svg aria-hidden="true" style="position: absolute; width: 0; height: 0; overflow: hidden;" version="1.1" xmlns="http://www.w3.org/2000/svg" xmlns:xlink="http://www.w3.org/1999/xlink">
<defs>
<symbol id="icon-arrow-right" viewBox="0 0 18 10">
<path fill-rule="evenodd" clip-rule="evenodd" d="M12.5 0.669876L18 5L12.5 9.33013V5.75L0 5.75L0 4.25L12.5 4.25V0.669876Z" />
</symbol>
<symbol id="icon-close" viewBox="0 0 32 32">
<path d="M24 8L8 24" stroke="#121212" stroke-width="3" stroke-linecap="round" stroke-linejoin="round"/>
<path d="M8 8L24 24" stroke="#121212" stroke-width="3" stroke-linecap="round" stroke-linejoin="round"/>
</symbol>
<symbol id="icon-burger" viewBox="0 0 46 32">
<path fill="none" stroke="#fff" style="stroke: var(--color1, #fff)" stroke-linejoin="miter" stroke-linecap="round" stroke-miterlimit="4" stroke-width="3.4286" d="M8.671 5.074h35.329"></path>
<path fill="none" stroke="#fff" style="stroke: var(--color1, #fff)" stroke-linejoin="miter" stroke-linecap="round" stroke-miterlimit="4" stroke-width="3.4286" d="M8.671 24.468h35.329"></path>
<path fill="none" stroke="#fff" style="stroke: var(--color1, #fff)" stroke-linejoin="miter" stroke-linecap="round" stroke-miterlimit="4" stroke-width="3.4286" d="M19.602 14.771h24.398"></path>
</symbol>
<symbol id="icon-star-rating" viewBox="0 0 32 32">
<path fill="#fff" style="fill: var(--color1, #fff)" opacity="0.2" stroke-linejoin="round" stroke-linecap="round" stroke-miterlimit="4" stroke-width="1.6" stroke="#000" d="M16 3.2l3.955 7.899 8.845 1.274-6.4 6.145 1.51 8.681-7.91-4.101-7.91 4.101 1.51-8.681-6.4-6.145 8.845-1.274 3.955-7.899z"></path>
</symbol>
<symbol id="icon-star" viewBox="0 0 20 20">
<path d="M10.0001 1.66667L12.5751 6.88334L18.3334 7.72501L14.1667 11.7833L15.1501 17.5167L10.0001 14.8083L4.85008 17.5167L5.83341 11.7833L1.66675 7.72501L7.42508 6.88334L10.0001 1.66667Z" stroke="#121212" stroke-width="1.5" stroke-linecap="round" stroke-linejoin="round"/>
</symbol>
<symbol id="icon-arrow-right-top" viewBox="0 0 34 32">
<path fill="#fff" style="fill: var(--color1, #fff)" opacity="0.4" d="M16.127 6.678l11.784-0.368-2.408 11.541-3.876-4.619-16.127 13.532-1.624-1.935 16.127-13.532-3.876-4.619z"></path>
</symbol>
<symbol id="icon-camera" viewBox="0 0 32 32">
<path fill="#bea69e" style="fill: var(--color2, #bea69e)" d="M21.161 18.159c0 2.846-2.315 5.161-5.161 5.161s-5.16-2.315-5.16-5.161c0-2.846 2.314-5.161 5.16-5.161s5.161 2.316 5.161 5.161zM32 10.831v14.658c0 1.954-1.584 3.538-3.538 3.538h-24.923c-1.954 0-3.538-1.584-3.538-3.538v-14.658c0-1.954 1.584-3.538 3.538-3.538h4.352v-1.224c0-1.71 1.385-3.096 3.096-3.096h10.026c1.711 0 3.096 1.386 3.096 3.096v1.223h4.352c1.954 0.001 3.538 1.585 3.538 3.539zM23.815 18.159c0-4.309-3.506-7.815-7.815-7.815s-7.814 3.506-7.814 7.815c0 4.309 3.506 7.815 7.814 7.815s7.815-3.506 7.815-7.815z"></path>
</symbol>
<symbol id="icon-logo" viewBox="0 0 233 32">
<path fill="#fff" style="fill: var(--color1, #fff)" d="M19.471 17.348h-13.192v12.649h-6.28v-29.997h21.368v5.24h-15.089v6.822h13.192v5.286z"></path>
<path fill="#fff" style="fill: var(--color1, #fff)" d="M32.201 25.66c3.569 0 5.376-2.259 5.376-6.776s-1.807-6.731-5.376-6.731c-3.569 0-5.376 2.214-5.376 6.731s1.807 6.776 5.376 6.776zM32.201 30.584c-7.183 0-11.43-4.789-11.43-11.701 0-7.048 4.382-11.701 11.43-11.701 6.957 0 11.294 4.608 11.294 11.701 0 7.048-4.382 11.701-11.294 11.701z"></path>
<path fill="#fff" style="fill: var(--color1, #fff)" d="M59.716 21.956h5.918c-0.632 5.15-4.834 8.629-10.21 8.629-6.054 0-10.21-4.021-10.21-11.972s4.156-11.43 10.391-11.43c5.783 0 9.713 3.298 10.074 8.538h-5.918c-0.316-2.304-1.988-3.659-4.201-3.659-2.485 0-4.518 1.581-4.518 6.415s2.033 7.183 4.337 7.183c2.304 0 4.111-1.31 4.337-3.704z"></path>
<path fill="#fff" style="fill: var(--color1, #fff)" d="M87.384 29.997h-5.557v-3.117c-1.536 2.53-3.84 3.704-6.912 3.704-4.427 0-7.545-3.298-7.545-8.177v-14.637h5.873v13.734c0 2.801 1.265 4.156 3.749 4.156 2.982 0 4.563-2.123 4.563-5.060v-12.83h5.828v22.227z"></path>
<path fill="#fff" style="fill: var(--color1, #fff)" d="M108.978 14.502h-5.647c-0.316-2.168-1.491-2.936-4.156-2.936-2.214 0-3.479 0.542-3.479 1.852s1.22 1.852 3.614 2.53c2.53 0.723 4.924 1.22 6.641 1.897 2.349 0.949 3.659 2.485 3.659 5.376 0 4.608-3.388 7.364-9.713 7.364-6.822 0-10.616-3.208-10.707-7.725h6.053c0 2.078 1.762 3.298 4.608 3.298 2.078 0 3.93-0.632 3.93-2.304 0-1.581-1.672-2.078-3.569-2.53-3.75-0.904-5.828-1.536-7.409-2.53-2.078-1.31-2.801-3.027-2.801-5.015 0-3.75 2.575-6.596 9.352-6.596 6.415 0 9.306 2.53 9.623 7.319z"></path>
<path fill="#fff" style="fill: var(--color1, #fff)" d="M117.412 29.997h-6.28v-6.099h6.28v6.099z"></path>
<path fill="#fff" style="fill: var(--color1, #fff)" d="M139.030 17.348h-13.192v12.649h-6.28v-29.997h21.368v5.24h-15.089v6.822h13.192v5.286z"></path>
<path fill="#fff" style="fill: var(--color1, #fff)" d="M147.494 29.997h-5.873v-22.227h5.512v2.665c1.943-2.982 4.201-3.253 6.596-3.253h0.768v6.008c-0.542-0.090-1.084-0.136-1.626-0.136-3.614 0-5.376 1.807-5.376 5.376v11.565z"></path>
<path fill="#fff" style="fill: var(--color1, #fff)" d="M168.495 21.549l0.045-2.44c-0.587 0.587-1.626 0.904-3.795 1.31-3.343 0.632-4.427 1.581-4.427 3.479 0 1.672 0.994 2.485 2.846 2.485 3.027 0 5.286-2.214 5.331-4.834zM174.413 29.997h-5.466c-0.181-0.542-0.316-1.31-0.361-1.988-1.4 1.536-3.75 2.575-6.731 2.575-5.060 0-7.409-2.485-7.409-6.099 0-6.415 4.292-7.138 10.21-7.951 2.936-0.407 3.75-0.994 3.75-2.53 0-1.446-1.446-2.304-3.75-2.304-2.665 0-3.75 1.31-4.021 3.298h-5.466c0.090-4.608 2.62-7.816 9.758-7.816 7.048 0 9.487 3.162 9.487 8.764v14.050z"></path>
<path fill="#fff" style="fill: var(--color1, #fff)" d="M208.808 29.997h-5.737v-13.463c0-2.665-1.4-4.563-3.479-4.563-2.168 0-3.75 2.033-3.75 4.744v13.282h-5.873v-13.372c0-3.569-0.949-4.472-3.524-4.472-2.349 0-3.569 1.446-3.569 4.337v13.508h-5.873v-22.227h5.512v3.253c1.491-2.936 3.569-3.84 6.506-3.84 3.027 0 4.472 0.949 6.189 3.524 1.22-2.44 3.208-3.524 6.008-3.524 4.472 0 7.59 3.253 7.59 7.409v15.405z"></path>
<path fill="#fff" style="fill: var(--color1, #fff)" d="M216.619 16.715h9.080c-0.090-3.298-2.259-4.879-4.563-4.879-2.349 0-4.292 1.807-4.518 4.879zM231.753 20.42h-15.315c0.181 3.343 2.078 5.512 4.969 5.512 1.897 0 3.569-0.949 3.976-2.485h6.054c-1.355 4.563-5.015 7.138-9.758 7.138-7.409 0-11.113-4.066-11.113-12.107 0-6.867 3.93-11.294 10.752-11.294s10.436 4.427 10.436 13.237z"></path>
</symbol>
</defs>
</svg>
